<svg width="919" height="377" viewBox="0 0 919 377" fill="none" xmlns="http://www.w3.org/2000/svg">
<g clip-path="url(#clip0_216_93)">
<path d="M910.472 118.107V180.665C633.269 180.665 522.673 305.83 522.673 305.83C522.673 340.384 496.534 368.437 462.109 368.437C427.683 368.437 398.923 340.396 398.923 305.83C398.923 305.83 285.73 180.665 8.52734 180.665V118.107C8.52734 118.107 20.703 117.44 41.3824 117.779C122.602 118.859 335.266 134.177 459.463 258.857C459.463 258.893 459.5 258.893 459.5 258.893C586.438 131.448 805.831 118.228 882.786 117.731C900.325 117.561 910.472 118.107 910.472 118.107Z" fill="#EBEBEB"/>
<path d="M882.799 117.731C805.843 118.216 586.439 131.436 459.512 258.893C335.303 134.189 122.603 118.859 41.3828 117.779L45.0307 92.1033L56.9407 8.56268C321.859 8.56268 462.109 118.107 462.109 118.107C462.109 118.107 602.323 8.56268 867.229 8.56268L869.584 25.215V25.2514L882.787 117.731H882.799Z" fill="white"/>
<path fill-rule="evenodd" clip-rule="evenodd" d="M459.501 246.935C498.36 209.785 545.021 182.509 593.446 162.569C597.795 160.774 602.783 162.86 604.571 167.239C606.359 171.605 604.269 176.614 599.921 178.409C551.025 198.554 503.94 226.389 465.541 264.945C462.207 268.293 456.82 268.293 453.486 264.945C441.757 253.169 429.219 242.399 416.077 232.538C412.308 229.712 411.535 224.339 414.35 220.555C417.164 216.771 422.515 215.995 426.284 218.809C437.856 227.493 448.98 236.844 459.526 246.935H459.501Z" fill="#C3C3C3"/>
<path d="M910.473 144.813V180.665C633.27 180.665 522.674 305.83 522.674 305.83C522.674 340.384 496.535 368.437 462.109 368.437C427.684 368.437 398.924 340.396 398.924 305.83C420.074 327.055 476.713 330.96 511.911 298.517C597.6 219.585 734.625 144.813 910.46 144.813H910.473Z" fill="#CDCDCD"/>
<path fill-rule="evenodd" clip-rule="evenodd" d="M901.944 172.151V118.107C901.944 113.377 905.761 109.544 910.471 109.544C915.182 109.544 918.999 113.377 918.999 118.107V180.665C918.999 185.395 915.182 189.228 910.471 189.228C782.578 189.228 690.584 216.129 628.884 244.885C624.62 246.874 619.547 245.006 617.566 240.713C615.585 236.432 617.445 231.338 621.721 229.349C683.614 200.507 775.21 173.315 901.956 172.151H901.944Z" fill="#C3C3C3"/>
<path fill-rule="evenodd" clip-rule="evenodd" d="M390.492 309.408C373.944 292.974 259.507 189.228 8.52782 189.228C3.81699 189.228 0 185.395 0 180.665V118.107C0 113.558 3.53917 109.799 8.05674 109.556C8.05674 109.556 20.4499 108.877 41.5037 109.216C46.2145 109.289 49.9711 113.195 49.8986 117.913C49.8141 122.643 45.9367 126.415 41.2379 126.33C30.8016 126.16 22.5879 126.245 17.0556 126.378V172.139C292.688 174.661 405.241 300.069 405.241 300.069C406.666 301.646 407.463 303.696 407.463 305.83C407.463 335.703 432.37 359.875 462.121 359.875C491.872 359.875 514.158 335.594 514.158 305.83C514.158 301.1 517.987 297.268 522.686 297.268C527.384 297.268 531.213 301.1 531.213 305.83C531.213 345.187 501.318 377 462.121 377C422.925 377 392.413 347.006 390.504 309.408H390.492Z" fill="#C3C3C3"/>
<path fill-rule="evenodd" clip-rule="evenodd" d="M462.109 107.531C474.417 98.8952 508.347 76.9185 562.969 55.0509C631.844 27.4951 733.912 0 867.229 0C871.481 0 875.068 3.12913 875.672 7.36196L878.027 24.0143V24.0992L891.23 116.53C891.58 118.98 890.855 121.454 889.249 123.334C887.642 125.202 885.299 126.293 882.847 126.305C873.582 126.366 862.24 126.609 849.219 127.215C844.52 127.433 840.522 123.783 840.305 119.065C840.087 114.347 843.723 110.332 848.422 110.114C857.433 109.689 865.659 109.435 872.966 109.301L861.141 26.4764V26.3915L859.824 17.1617C732.885 18.1441 635.431 44.4871 569.274 70.9756C501.982 97.9128 467.327 124.874 467.327 124.874C464.247 127.288 459.935 127.288 456.854 124.874C456.854 124.874 320.965 19.1629 64.3087 17.1617L53.4496 93.3161L51.1666 109.411C62.2552 109.689 75.1557 110.223 89.4935 111.206C94.1923 111.521 97.7436 115.608 97.4174 120.326C97.0913 125.044 93.0327 128.61 88.334 128.294C69.9617 127.045 53.969 126.524 41.2497 126.354C38.7977 126.318 36.4785 125.226 34.8841 123.358C33.2896 121.49 32.577 119.016 32.9273 116.578L36.5751 90.9026L48.5093 7.34983C49.1011 3.12913 52.7007 0 56.9404 0C295.514 0 434.23 87.9796 462.109 107.531Z" fill="#C3C3C3"/>
</g>
<defs>
<clipPath id="clip0_216_93">
<rect width="919" height="377" fill="white"/>
</clipPath>
</defs>
</svg>
