<svg width="224" height="49" viewBox="0 0 224 49" fill="none" xmlns="http://www.w3.org/2000/svg">
<g id="Isolation_Mode" clip-path="url(#clip0_218_61)">
<path id="Vector" d="M63.2136 24.9123C66.2212 22.7075 68.1797 19.1997 68.1797 15.2439C68.1797 8.58289 62.6526 3.16357 55.859 3.16357L18.2883 3.16649C18.2883 13.0538 10.0839 21.0981 0 21.0981V31.0641C10.0839 31.0641 18.2883 39.1085 18.2883 48.9957L62.5395 48.9987C69.3226 48.9987 74.8393 43.5881 74.8393 36.9387C74.8393 30.2893 69.6798 25.2567 63.2136 24.9123ZM55.859 9.36937C59.1628 9.36937 61.8504 12.0046 61.8504 15.2439C61.8504 18.4833 59.1628 21.1185 55.8635 21.1185L46.7409 21.0981C38.8788 21.0981 32.1597 16.2084 29.5806 9.36792H55.859V9.36937ZM23.3704 41.4285C20.9283 34.1984 15.0917 28.4756 7.71772 26.0811C15.0917 23.6866 20.9283 17.9638 23.3704 10.7337C25.8126 17.9638 31.6492 23.6866 39.0217 26.0811C31.6477 28.4756 25.8126 34.1984 23.3704 41.4285ZM62.5409 42.7943H29.5806C32.1612 35.9538 38.8788 31.0641 46.7394 31.0641L62.5409 31.0831C65.8343 31.0831 68.513 33.7096 68.513 36.9387C68.513 40.1678 65.8343 42.7943 62.5409 42.7943Z" fill="white"/>
<g id="Group">
<path id="Vector_2" d="M100.67 12.3635C101.118 13.0216 101.341 13.7891 101.341 14.6661V14.9681C101.341 16.5221 100.726 17.7508 99.4956 18.6554C98.2649 19.5601 96.5966 20.0124 94.4908 20.0124H83.0273V2.02832H93.9595C96.1219 2.02832 97.7946 2.44418 98.9792 3.2759C100.162 4.10762 100.755 5.27349 100.755 6.77059V7.07263C100.755 8.68062 100.074 9.92383 98.7143 10.8008C99.5715 11.1845 100.223 11.7055 100.671 12.3635H100.67ZM87.2211 5.62077V9.23948H93.9313C95.665 9.23948 96.5311 8.68208 96.5311 7.56729V7.29296C96.5311 6.74432 96.3109 6.32846 95.8734 6.04538C95.4358 5.76231 94.7974 5.62077 93.9581 5.62077H87.2196H87.2211ZM97.0624 14.3655C97.0624 13.2332 96.1859 12.6656 94.4343 12.6656H87.2211V16.4215H94.4343C95.2736 16.4215 95.921 16.2668 96.3778 15.956C96.8347 15.6452 97.0624 15.2074 97.0624 14.6398V14.3655Z" fill="white"/>
<path id="Vector_3" d="M115.068 6.27734V9.78662H111.937C110.184 9.78662 108.955 10.2156 108.246 11.0751V20.0124H104.221V6.27734H107.995L108.106 7.53806C109.281 6.69758 110.734 6.27734 112.468 6.27734H115.068Z" fill="white"/>
<path id="Vector_4" d="M117.08 4.0156C116.615 3.58661 116.381 3.02484 116.381 2.33028C116.381 1.63572 116.615 1.07394 117.08 0.644948C117.546 0.215955 118.152 0 118.897 0C119.643 0 120.272 0.214496 120.729 0.644948C121.186 1.07394 121.414 1.63718 121.414 2.33028C121.414 3.02338 121.18 3.58661 120.714 4.0156C120.249 4.4446 119.643 4.66055 118.897 4.66055C118.152 4.66055 117.546 4.44606 117.08 4.0156ZM120.911 6.2773V20.0124H116.885V6.2773H120.911Z" fill="white"/>
<path id="Vector_5" d="M140.12 6.27728V18.4773C140.12 22.8635 137.352 25.0377 131.816 25.0027C129.187 25.0027 127.137 24.5372 125.665 23.6048C124.192 22.6724 123.456 21.3752 123.456 19.7118V19.5469H127.595V19.7118C127.595 20.2414 127.986 20.6806 128.769 21.0279C129.552 21.3752 130.54 21.5488 131.734 21.5488C133.15 21.5488 134.226 21.2979 134.963 20.7944C135.7 20.291 136.067 19.5658 136.067 18.6145V17.9009C134.762 18.7604 133.225 19.1894 131.454 19.1894C128.863 19.1894 126.869 18.6407 125.47 17.5449C124.072 16.4476 123.373 14.8761 123.373 12.8289V12.5546C123.373 10.4709 124.081 8.84978 125.498 7.68829C126.915 6.52825 128.9 5.94751 131.454 5.94751C133.356 5.94751 134.959 6.41298 136.264 7.34538L136.347 6.27582H140.121L140.12 6.27728ZM134.332 15.3795C135.078 15.1052 135.655 14.7316 136.066 14.256V11.0487C135.655 10.573 135.073 10.1893 134.319 9.89745C133.564 9.60562 132.749 9.45825 131.872 9.45825C129.001 9.45825 127.567 10.4913 127.567 12.556V12.8304C127.567 13.8357 127.916 14.5799 128.616 15.0643C129.315 15.5488 130.4 15.791 131.874 15.791C132.768 15.791 133.588 15.6538 134.334 15.3795H134.332Z" fill="white"/>
<path id="Vector_6" d="M157.761 7.79917C159.01 9.03216 159.635 10.8474 159.635 13.2404V20.0123H155.581V13.2404C155.581 12.0526 155.249 11.1436 154.588 10.5132C153.926 9.88285 152.962 9.56767 151.695 9.56767C150.819 9.56767 150.027 9.76904 149.319 10.1703C148.61 10.573 148.07 11.1115 147.696 11.7871V20.0109H143.643V0.932373H147.696V7.45773C148.945 6.45237 150.464 5.95042 152.253 5.95042C154.676 5.95042 156.512 6.56764 157.761 7.80063V7.79917Z" fill="white"/>
<path id="Vector_7" d="M168.89 9.78657V14.9958C168.89 15.489 169.035 15.8683 169.323 16.1339C169.612 16.3995 170.027 16.5308 170.567 16.5308H173.867V20.0123H170.036C168.433 20.0123 167.165 19.5877 166.234 18.737C165.302 17.8878 164.836 16.7322 164.836 15.2686V9.78511H160.168V6.27583H163.915C164.307 6.27583 164.576 6.20287 164.726 6.05696C164.875 5.91104 164.95 5.64548 164.95 5.26172V2.62939H168.892V6.27583H174.708V9.78511H168.892L168.89 9.78657Z" fill="white"/>
<path id="Vector_8" d="M83.5847 45.0603C82.0191 44.0009 81.2363 42.4469 81.2363 40.3997V40.1254H85.375V40.3997C85.375 41.2767 85.8229 41.945 86.7173 42.4002C87.6117 42.8569 88.9168 43.086 90.6312 43.086C92.1596 43.086 93.3189 42.9255 94.1121 42.606C94.9038 42.2864 95.3012 41.8151 95.3012 41.1935V41.0009C95.3012 40.5077 95.0779 40.1283 94.63 39.8627C94.182 39.5986 93.3903 39.3827 92.2534 39.2178L87.5849 38.5597C83.5594 37.9746 81.5459 36.3491 81.5459 33.6803V33.406C81.5459 31.706 82.3048 30.3811 83.8243 29.4312C85.3437 28.4813 87.4733 28.0056 90.2131 28.0056C93.121 28.0056 95.3384 28.5178 96.8682 29.5407C98.3966 30.565 99.16 32.0446 99.16 33.9823V34.2289H95.0229V33.9823C95.0229 32.3743 93.4201 31.5703 90.2131 31.5703C88.777 31.5703 87.6831 31.7163 86.9271 32.0095C86.1726 32.3028 85.7946 32.7318 85.7946 33.298V33.5169C85.7946 33.9371 86.0045 34.2669 86.4241 34.5032C86.8438 34.7411 87.5656 34.9322 88.5909 35.0782L93.2891 35.7362C95.4321 36.047 97.0126 36.6088 98.0275 37.4216C99.0439 38.2343 99.5514 39.3637 99.5514 40.8068V41.0811C99.5514 42.835 98.7582 44.2023 97.1748 45.1799C95.5899 46.1575 93.3531 46.6464 90.4646 46.6464C87.576 46.6464 85.1517 46.1167 83.5862 45.0559L83.5847 45.0603Z" fill="white"/>
<path id="Vector_9" d="M105.675 45.8146C104.389 45.2572 103.401 44.4532 102.71 43.4026C102.02 42.352 101.676 41.1132 101.676 39.6876V39.3316C101.676 37.8695 102.015 36.6088 102.697 35.548C103.377 34.4886 104.36 33.6744 105.646 33.1083C106.932 32.5421 108.46 32.259 110.231 32.259C112.002 32.259 113.493 32.5421 114.761 33.1083C116.029 33.6744 117.003 34.4886 117.683 35.548C118.363 36.6088 118.704 37.8695 118.704 39.3316V39.6876C118.704 41.1132 118.363 42.352 117.683 43.4026C117.003 44.4532 116.028 45.2572 114.761 45.8146C113.493 46.372 111.984 46.6507 110.231 46.6507C108.478 46.6507 106.96 46.372 105.675 45.8146ZM113.377 42.1536C114.132 41.5685 114.51 40.7382 114.51 39.6584V39.3564C114.51 38.2416 114.136 37.3821 113.392 36.7795C112.647 36.1769 111.584 35.8748 110.205 35.8748C108.825 35.8748 107.734 36.1725 106.989 36.7664C106.243 37.3603 105.871 38.2241 105.871 39.3578V39.6599C105.871 40.7382 106.249 41.5699 107.003 42.155C107.758 42.7402 108.825 43.032 110.205 43.032C111.584 43.032 112.623 42.7402 113.377 42.155V42.1536Z" fill="white"/>
<path id="Vector_10" d="M122.422 45.266C121.602 44.5626 121.191 43.5806 121.191 42.3184V27.241H125.217V41.6064C125.217 42.0266 125.329 42.3374 125.552 42.5388C125.775 42.7401 126.14 42.8408 126.643 42.8408H127.845V46.3224H125.888C124.397 46.3224 123.241 45.9707 122.421 45.2674L122.422 45.266Z" fill="white"/>
<path id="Vector_11" d="M145.404 32.5874V46.3225H141.63L141.518 45.0063C140.288 46.0671 138.713 46.6143 136.794 46.6508C134.389 46.6683 132.558 46.0613 131.299 44.8283C130.042 43.5953 129.412 41.7713 129.412 39.3594V32.5874H133.466V39.3594C133.466 40.5471 133.796 41.4562 134.459 42.0865C135.121 42.7169 136.085 43.0321 137.353 43.0321C138.23 43.0321 139.021 42.8365 139.73 42.4426C140.438 42.05 140.978 41.5145 141.352 40.8389V32.5874H145.406H145.404Z" fill="white"/>
<path id="Vector_12" d="M155.384 36.0952V41.3044C155.384 41.7976 155.529 42.1769 155.817 42.4425C156.106 42.7081 156.521 42.8394 157.062 42.8394H160.361V46.3209H156.53C154.927 46.3209 153.66 45.8963 152.728 45.0456C151.796 44.1964 151.331 43.0408 151.331 41.5772V36.0937H146.662V32.5844H150.409C150.801 32.5844 151.07 32.5115 151.22 32.3656C151.369 32.2196 151.444 31.9541 151.444 31.5703V28.938H155.386V32.5844H161.202V36.0937H155.386L155.384 36.0952Z" fill="white"/>
<path id="Vector_13" d="M163.047 30.3242C162.581 29.8952 162.348 29.3334 162.348 28.6389C162.348 27.9443 162.581 27.3825 163.047 26.9535C163.513 26.5245 164.119 26.3086 164.864 26.3086C165.61 26.3086 166.239 26.5231 166.696 26.9535C167.153 27.3825 167.381 27.9458 167.381 28.6389C167.381 29.332 167.147 29.8952 166.681 30.3242C166.215 30.7532 165.61 30.9691 164.864 30.9691C164.119 30.9691 163.513 30.7547 163.047 30.3242ZM166.878 32.5874V46.3224H162.852V32.5874H166.878Z" fill="white"/>
<path id="Vector_14" d="M173.364 45.8146C172.078 45.2572 171.09 44.4532 170.4 43.4026C169.709 42.352 169.365 41.1132 169.365 39.6876V39.3316C169.365 37.8695 169.705 36.6088 170.386 35.548C171.066 34.4886 172.05 33.6744 173.336 33.1083C174.622 32.5421 176.15 32.259 177.921 32.259C179.692 32.259 181.183 32.5421 182.451 33.1083C183.719 33.6744 184.692 34.4886 185.372 35.548C186.052 36.6088 186.393 37.8695 186.393 39.3316V39.6876C186.393 41.1132 186.052 42.352 185.372 43.4026C184.692 44.4532 183.717 45.2572 182.451 45.8146C181.183 46.372 179.674 46.6507 177.921 46.6507C176.168 46.6507 174.65 46.372 173.364 45.8146ZM181.067 42.1536C181.821 41.5685 182.199 40.7382 182.199 39.6584V39.3564C182.199 38.2416 181.826 37.3821 181.082 36.7795C180.336 36.1769 179.274 35.8748 177.894 35.8748C176.514 35.8748 175.424 36.1725 174.678 36.7664C173.932 37.3603 173.56 38.2241 173.56 39.3578V39.6599C173.56 40.7382 173.938 41.5699 174.693 42.155C175.447 42.7402 176.514 43.032 177.894 43.032C179.274 43.032 180.312 42.7402 181.067 42.155V42.1536Z" fill="white"/>
<path id="Vector_15" d="M203.056 34.0947C204.304 35.3189 204.93 37.137 204.93 39.5504V46.3224H200.876V39.5504C200.876 38.3627 200.544 37.4536 199.883 36.8233C199.221 36.1929 198.257 35.8777 196.99 35.8777C196.114 35.8777 195.322 36.0747 194.613 36.4672C193.905 36.8598 193.365 37.3953 192.991 38.0709V46.3224H188.938V32.5873H192.712L192.823 33.9035C194.054 32.8442 195.628 32.2955 197.548 32.259C199.971 32.259 201.807 32.8719 203.056 34.0961V34.0947Z" fill="white"/>
<path id="Vector_16" d="M209.838 45.4309C208.375 44.6181 207.643 43.4624 207.643 41.9624V41.8253H211.528V41.9624C211.528 42.4746 211.882 42.8438 212.591 43.0729C213.299 43.3019 214.445 43.4158 216.03 43.4158C218.639 43.4158 219.944 43.051 219.944 42.3185V42.1813C219.944 41.907 219.776 41.6969 219.441 41.551C219.106 41.405 218.499 41.2956 217.624 41.2226L214.016 40.8666C211.948 40.6652 210.437 40.245 209.486 39.6059C208.535 38.9668 208.061 38.0621 208.061 36.8919V36.6175C208.061 35.2474 208.754 34.1778 210.144 33.4103C211.533 32.6428 213.467 32.259 215.947 32.259C218.426 32.259 220.495 32.6618 221.874 33.4658C223.254 34.2698 223.943 35.4312 223.943 36.9473V37.1122H220.057V36.9473C220.057 36.4351 219.725 36.066 219.064 35.8369C218.402 35.6093 217.326 35.494 215.835 35.494C214.624 35.494 213.692 35.5757 213.039 35.7406C212.385 35.9055 212.059 36.1433 212.059 36.4527V36.6175C212.059 36.8919 212.213 37.102 212.521 37.2479C212.829 37.3938 213.336 37.5047 214.045 37.5762L217.707 37.9322C219.907 38.1511 221.505 38.5816 222.502 39.2207C223.499 39.8612 223.998 40.7834 223.998 41.9902V42.2645C223.998 43.6536 223.289 44.7319 221.873 45.4994C220.456 46.267 218.49 46.6507 215.973 46.6507C213.457 46.6507 211.299 46.2436 209.836 45.4309H209.838Z" fill="white"/>
</g>
</g>
<defs>
<clipPath id="clip0_218_61">
<rect width="224" height="49" fill="white"/>
</clipPath>
</defs>
</svg>
