<svg width="294" height="65" viewBox="0 0 294 65" fill="none" xmlns="http://www.w3.org/2000/svg">
<g clip-path="url(#clip0_223_25)">
<path d="M82.9679 33.0469C86.9154 30.1222 89.4858 25.469 89.4858 20.2215C89.4858 11.3854 82.2315 4.19653 73.3149 4.19653L24.0034 4.2004C24.0034 17.3162 13.2352 27.9872 0 27.9872V41.2075C13.2352 41.2075 24.0034 51.8786 24.0034 64.9943L82.083 64.9982C90.9859 64.9982 98.2266 57.8209 98.2266 49.0003C98.2266 40.1797 91.4547 33.5037 82.9679 33.0469ZM73.3149 12.4287C77.6511 12.4287 81.1787 15.9244 81.1787 20.2215C81.1787 24.5186 77.6511 28.0143 73.3208 28.0143L61.3474 27.9872C51.0284 27.9872 42.2096 21.501 38.8246 12.4268H73.3149V12.4287ZM30.6737 54.9562C27.4684 45.3652 19.8078 37.7737 10.1295 34.5974C19.8078 31.421 27.4684 23.8295 30.6737 14.2385C33.879 23.8295 41.5396 31.421 51.216 34.5974C41.5376 37.7737 33.879 45.3652 30.6737 54.9562ZM82.085 56.7679H38.8246C42.2115 47.6937 51.0284 41.2075 61.3455 41.2075L82.085 41.2327C86.4075 41.2327 89.9234 44.7168 89.9234 49.0003C89.9234 53.2838 86.4075 56.7679 82.085 56.7679Z" fill="white"/>
<path d="M132.129 16.4004C132.717 17.2734 133.01 18.2915 133.01 19.4548V19.8555C133.01 21.9169 132.204 23.5467 130.588 24.7468C128.973 25.9469 126.783 26.5469 124.019 26.5469H108.974V2.69043H123.322C126.16 2.69043 128.356 3.24208 129.91 4.34538C131.463 5.44869 132.241 6.99525 132.241 8.98119V9.38186C132.241 11.5149 131.348 13.1641 129.563 14.3274C130.688 14.8364 131.543 15.5275 132.131 16.4004H132.129ZM114.478 7.45592V12.2563H123.285C125.561 12.2563 126.697 11.5168 126.697 10.038V9.67414C126.697 8.94635 126.408 8.3947 125.834 8.01919C125.26 7.64368 124.422 7.45592 123.32 7.45592H114.476H114.478ZM127.395 19.0561C127.395 17.554 126.244 16.8011 123.945 16.8011H114.478V21.7834H123.945C125.047 21.7834 125.897 21.5782 126.496 21.1659C127.096 20.7536 127.395 20.1729 127.395 19.42V19.0561Z" fill="white"/>
<path d="M151.027 8.32715V12.9823H146.918C144.617 12.9823 143.003 13.5514 142.074 14.6915V26.5471H136.79V8.32715H141.743L141.89 9.99952C143.431 8.88461 145.339 8.32715 147.615 8.32715H151.027Z" fill="white"/>
<path d="M153.67 5.32682C153.059 4.75775 152.752 4.01254 152.752 3.09118C152.752 2.16983 153.059 1.42462 153.67 0.855543C154.281 0.286472 155.076 0 156.055 0C157.033 0 157.86 0.284536 158.459 0.855543C159.059 1.42462 159.358 2.17176 159.358 3.09118C159.358 4.0106 159.051 4.75775 158.44 5.32682C157.828 5.89589 157.033 6.18237 156.055 6.18237C155.076 6.18237 154.281 5.89783 153.67 5.32682ZM158.698 8.32703V26.547H153.414V8.32703H158.698Z" fill="white"/>
<path d="M183.908 8.3271V24.5108C183.908 30.3293 180.275 33.2133 173.008 33.1669C169.559 33.1669 166.867 32.5494 164.936 31.3126C163.002 30.0757 162.037 28.3549 162.037 26.1483V25.9296H167.469V26.1483C167.469 26.851 167.983 27.4336 169.01 27.8943C170.038 28.3549 171.335 28.5853 172.901 28.5853C174.761 28.5853 176.173 28.2524 177.14 27.5846C178.106 26.9168 178.589 25.9548 178.589 24.6928V23.7462C176.876 24.8863 174.858 25.4554 172.534 25.4554C169.133 25.4554 166.516 24.7276 164.68 23.2739C162.846 21.8184 161.928 19.7337 161.928 17.018V16.6541C161.928 13.8901 162.857 11.7396 164.717 10.1988C166.576 8.66002 169.182 7.88965 172.534 7.88965C175.03 7.88965 177.134 8.50711 178.847 9.74397L178.956 8.32516H183.91L183.908 8.3271ZM176.311 20.4015C177.29 20.0376 178.048 19.5421 178.587 18.9111V14.6566C178.048 14.0256 177.284 13.5165 176.294 13.1294C175.304 12.7422 174.233 12.5467 173.083 12.5467C169.315 12.5467 167.432 13.9172 167.432 16.6561V17.02C167.432 18.3536 167.891 19.3408 168.809 19.9834C169.727 20.626 171.151 20.9473 173.085 20.9473C174.259 20.9473 175.335 20.7654 176.313 20.4015H176.311Z" fill="white"/>
<path d="M207.064 10.3458C208.702 11.9814 209.523 14.3893 209.523 17.5638V26.547H204.202V17.5638C204.202 15.9882 203.767 14.7823 202.899 13.9461C202.03 13.1099 200.764 12.6918 199.102 12.6918C197.952 12.6918 196.913 12.9589 195.983 13.4912C195.053 14.0254 194.344 14.7397 193.854 15.6359V26.545H188.533V1.23682H193.854V9.8929C195.493 8.55926 197.487 7.89341 199.835 7.89341C203.015 7.89341 205.425 8.71217 207.064 10.3478V10.3458Z" fill="white"/>
<path d="M221.67 12.9822V19.8924C221.67 20.5466 221.859 21.0499 222.238 21.4022C222.617 21.7545 223.162 21.9287 223.871 21.9287H228.201V26.5471H223.174C221.07 26.5471 219.406 25.9838 218.183 24.8553C216.96 23.7288 216.349 22.1958 216.349 20.2544V12.9803H210.222V8.32515H215.14C215.654 8.32515 216.007 8.22837 216.204 8.0348C216.4 7.84124 216.497 7.48896 216.497 6.97989V3.48804H221.672V8.32515H229.305V12.9803H221.672L221.67 12.9822Z" fill="white"/>
<path d="M109.706 59.7739C107.651 58.3686 106.624 56.3072 106.624 53.5915V53.2276H112.056V53.5915C112.056 54.7548 112.644 55.6414 113.818 56.2453C114.992 56.8511 116.705 57.155 118.955 57.155C120.961 57.155 122.482 56.9421 123.523 56.5182C124.563 56.0943 125.084 55.4691 125.084 54.6445V54.389C125.084 53.7348 124.791 53.2315 124.203 52.8792C123.615 52.5289 122.576 52.2424 121.084 52.0237L114.957 51.1507C109.673 50.3745 107.03 48.2183 107.03 44.678V44.3141C107.03 42.0591 108.026 40.3016 110.021 39.0415C112.015 37.7814 114.81 37.1504 118.406 37.1504C122.223 37.1504 125.133 37.8298 127.141 39.1867C129.147 40.5455 130.149 42.5082 130.149 45.0787V45.4058H124.719V45.0787C124.719 42.9456 122.615 41.8791 118.406 41.8791C116.521 41.8791 115.085 42.0727 114.093 42.4617C113.103 42.8508 112.607 43.4199 112.607 44.1709V44.4612C112.607 45.0187 112.882 45.4561 113.433 45.7697C113.984 46.0852 114.931 46.3388 116.277 46.5323L122.443 47.4053C125.256 47.8176 127.33 48.5628 128.662 49.6409C129.997 50.7191 130.663 52.2172 130.663 54.1316V54.4955C130.663 56.8221 129.621 58.6358 127.543 59.9326C125.463 61.2295 122.527 61.8779 118.736 61.8779C114.945 61.8779 111.763 61.1753 109.708 59.7681L109.706 59.7739Z" fill="white"/>
<path d="M138.699 60.7746C137.011 60.0352 135.714 58.9687 134.808 57.575C133.901 56.1814 133.45 54.5381 133.45 52.647V52.1747C133.45 50.2352 133.896 48.5628 134.79 47.1556C135.683 45.7503 136.974 44.6703 138.661 43.9193C140.349 43.1682 142.355 42.7927 144.679 42.7927C147.004 42.7927 148.961 43.1682 150.625 43.9193C152.289 44.6703 153.567 45.7503 154.459 47.1556C155.352 48.5628 155.799 50.2352 155.799 52.1747V52.647C155.799 54.5381 155.352 56.1814 154.459 57.575C153.567 58.9687 152.287 60.0352 150.625 60.7746C148.961 61.514 146.98 61.8837 144.679 61.8837C142.378 61.8837 140.386 61.514 138.699 60.7746ZM148.809 55.9182C149.799 55.142 150.295 54.0406 150.295 52.6082V52.2076C150.295 50.7288 149.805 49.5887 148.828 48.7893C147.85 47.9899 146.455 47.5892 144.644 47.5892C142.834 47.5892 141.402 47.9841 140.423 48.7718C139.445 49.5596 138.956 50.7055 138.956 52.2095V52.6102C138.956 54.0406 139.453 55.1439 140.443 55.9201C141.433 56.6963 142.834 57.0834 144.644 57.0834C146.455 57.0834 147.818 56.6963 148.809 55.9201V55.9182Z" fill="white"/>
<path d="M160.68 60.0467C159.604 59.1137 159.064 57.811 159.064 56.1367V36.136H164.348V55.1922C164.348 55.7496 164.494 56.1619 164.787 56.429C165.08 56.6961 165.559 56.8297 166.219 56.8297H167.797V61.4481H165.229C163.272 61.4481 161.754 60.9816 160.678 60.0486L160.68 60.0467Z" fill="white"/>
<path d="M190.844 43.2283V61.4482H185.891L185.744 59.7023C184.129 61.1095 182.062 61.8354 179.543 61.8838C176.386 61.907 173.984 61.1018 172.331 59.4662C170.681 57.8306 169.854 55.4111 169.854 52.2115V43.2283H175.175V52.2115C175.175 53.7871 175.609 54.993 176.478 55.8291C177.347 56.6653 178.613 57.0834 180.277 57.0834C181.427 57.0834 182.467 56.8241 183.396 56.3014C184.326 55.7808 185.035 55.0704 185.525 54.1742V43.2283H190.846H190.844Z" fill="white"/>
<path d="M203.944 47.8814V54.7916C203.944 55.4458 204.134 55.9491 204.512 56.3014C204.891 56.6536 205.436 56.8278 206.145 56.8278H210.476V61.4462H205.448C203.344 61.4462 201.68 60.883 200.458 59.7545C199.235 58.628 198.623 57.095 198.623 55.1535V47.8795H192.496V43.2243H197.414C197.928 43.2243 198.282 43.1275 198.479 42.934C198.674 42.7404 198.772 42.3881 198.772 41.8791V38.3872H203.946V43.2243H211.579V47.8795H203.946L203.944 47.8814Z" fill="white"/>
<path d="M214 40.226C213.389 39.6569 213.082 38.9117 213.082 37.9904C213.082 37.069 213.389 36.3238 214 35.7547C214.611 35.1856 215.406 34.8992 216.385 34.8992C217.364 34.8992 218.19 35.1837 218.789 35.7547C219.389 36.3238 219.688 37.0709 219.688 37.9904C219.688 38.9098 219.381 39.6569 218.77 40.226C218.159 40.7951 217.364 41.0815 216.385 41.0815C215.406 41.0815 214.611 40.797 214 40.226ZM219.028 43.2281V61.4481H213.744V43.2281H219.028Z" fill="white"/>
<path d="M227.541 60.7746C225.854 60.0352 224.557 58.9687 223.65 57.575C222.744 56.1814 222.293 54.5381 222.293 52.647V52.1747C222.293 50.2352 222.738 48.5628 223.633 47.1556C224.526 45.7503 225.817 44.6703 227.504 43.9193C229.192 43.1682 231.198 42.7927 233.522 42.7927C235.847 42.7927 237.804 43.1682 239.468 43.9193C241.132 44.6703 242.409 45.7503 243.302 47.1556C244.195 48.5628 244.642 50.2352 244.642 52.1747V52.647C244.642 54.5381 244.195 56.1814 243.302 57.575C242.409 58.9687 241.13 60.0352 239.468 60.7746C237.804 61.514 235.823 61.8837 233.522 61.8837C231.221 61.8837 229.229 61.514 227.541 60.7746ZM237.651 55.9182C238.642 55.142 239.138 54.0406 239.138 52.6082V52.2076C239.138 50.7288 238.647 49.5887 237.671 48.7893C236.692 47.9899 235.298 47.5892 233.487 47.5892C231.676 47.5892 230.245 47.9841 229.266 48.7718C228.287 49.5596 227.799 50.7055 227.799 52.2095V52.6102C227.799 54.0406 228.295 55.1439 229.286 55.9201C230.276 56.6963 231.676 57.0834 233.487 57.0834C235.298 57.0834 236.661 56.6963 237.651 55.9201V55.9182Z" fill="white"/>
<path d="M266.513 45.2277C268.152 46.8517 268.972 49.2635 268.972 52.465V61.4482H263.651V52.465C263.651 50.8894 263.216 49.6835 262.349 48.8473C261.479 48.0112 260.214 47.5931 258.551 47.5931C257.401 47.5931 256.362 47.8544 255.432 48.375C254.502 48.8957 253.793 49.6061 253.303 50.5023V61.4482H247.982V43.2282H252.936L253.082 44.9742C254.698 43.5689 256.764 42.8411 259.284 42.7927C262.464 42.7927 264.874 43.6057 266.513 45.2297V45.2277Z" fill="white"/>
<path d="M275.413 60.2656C273.493 59.1874 272.532 57.6544 272.532 55.6646V55.4826H277.632V55.6646C277.632 56.344 278.097 56.8337 279.027 57.1376C279.956 57.4415 281.46 57.5925 283.541 57.5925C286.965 57.5925 288.678 57.1086 288.678 56.1369V55.9549C288.678 55.591 288.457 55.3123 288.018 55.1187C287.578 54.9252 286.781 54.78 285.633 54.6832L280.898 54.2109C278.183 53.9438 276.2 53.3864 274.952 52.5386C273.704 51.6908 273.081 50.4907 273.081 48.9383V48.5744C273.081 46.7569 273.991 45.3381 275.816 44.3199C277.638 43.3018 280.177 42.7927 283.431 42.7927C286.685 42.7927 289.4 43.327 291.211 44.3935C293.022 45.46 293.926 47.0008 293.926 49.0119V49.2306H288.826V49.0119C288.826 48.3325 288.391 47.8428 287.523 47.5389C286.654 47.2369 285.242 47.084 283.285 47.084C281.695 47.084 280.472 47.1924 279.615 47.4111C278.757 47.6298 278.329 47.9453 278.329 48.3557V48.5744C278.329 48.9383 278.531 49.217 278.935 49.4106C279.339 49.6042 280.005 49.7513 280.935 49.8461L285.742 50.3184C288.629 50.6087 290.727 51.1798 292.035 52.0276C293.344 52.8773 293.998 54.1006 293.998 55.7014V56.0653C293.998 57.908 293.069 59.3384 291.209 60.3565C289.35 61.3747 286.769 61.8837 283.466 61.8837C280.164 61.8837 277.331 61.3437 275.411 60.2656H275.413Z" fill="white"/>
</g>
<defs>
<clipPath id="clip0_223_25">
<rect width="294" height="65" fill="white"/>
</clipPath>
</defs>
</svg>
